<svg data-v-7ae03bc8="" xmlns="http://www.w3.org/2000/svg" width="58" height="58" viewBox="0 0 58 58" fill="none"><path data-v-7ae03bc8="" d="M10.954 49.0837C12.5965 45.214 16.4313 42.5 20.9 42.5H37.1C41.5687 42.5 45.4035 45.2141 47.046 49.0837M39.8 22.25C39.8 28.2147 34.9647 33.05 29 33.05C23.0353 33.05 18.2 28.2147 18.2 22.25C18.2 16.2853 23.0353 11.45 29 11.45C34.9647 11.45 39.8 16.2853 39.8 22.25ZM56 29C56 43.9117 43.9117 56 29 56C14.0883 56 2 43.9117 2 29C2 14.0883 14.0883 2 29 2C43.9117 2 56 14.0883 56 29Z" stroke="black" stroke-width="3" stroke-linecap="round" stroke-linejoin="round"></path></svg>