<svg xmlns="http://www.w3.org/2000/svg" width="14" height="14" viewBox="0 0 14 14" fill="none">
    <g clip-path="url(#clip0_0_5214)">
        <path d="M13.9634 5.37003C13.8712 5.08655 13.6198 4.88585 13.3235 4.85904L9.28209 4.49214L7.68491 0.752815C7.56698 0.478091 7.29867 0.300781 7.00002 0.300781C6.70137 0.300781 6.43295 0.478091 6.31577 0.752815L4.71859 4.49214L0.676564 4.85904C0.380264 4.88638 0.129359 5.08709 0.0366454 5.37003C-0.0555345 5.65352 0.0295957 5.96445 0.25369 6.16099L3.30866 8.83976L2.4079 12.807C2.342 13.0987 2.45522 13.4004 2.69726 13.5753C2.82736 13.6699 2.98021 13.7171 3.13359 13.7171C3.2654 13.7171 3.39731 13.682 3.51513 13.6115L7.00002 11.5278L10.4843 13.6115C10.7399 13.7643 11.0613 13.7503 11.3028 13.5753C11.5448 13.4004 11.658 13.0987 11.5921 12.807L10.6914 8.83976L13.7463 6.16099C13.9703 5.96445 14.0556 5.65416 13.9634 5.37003Z" fill="#1E1E1E"/>
    </g>
    <defs>
        <clipPath id="clip0_0_5214">
            <rect width="14" height="14" fill="white"/>
        </clipPath>
    </defs>
</svg>