<svg xmlns="http://www.w3.org/2000/svg" width="14" height="14" viewBox="0 0 14 14" fill="none">
    <path d="M7.00005 9.15635C8.19041 9.15635 9.15538 8.19138 9.15538 7.00103C9.15538 5.81068 8.19041 4.8457 7.00005 4.8457C5.8097 4.8457 4.84473 5.81068 4.84473 7.00103C4.84473 8.19138 5.8097 9.15635 7.00005 9.15635Z" fill="#1E1E1E"/>
    <path d="M13.7853 6.40377C12.1285 4.40174 9.62066 2.47461 7.00003 2.47461C4.37888 2.47461 1.87043 4.40309 0.214792 6.40377C-0.0715972 6.7497 -0.0715972 7.25189 0.214792 7.59782C0.631039 8.10082 1.50368 9.07179 2.66917 9.92018C5.60443 12.057 8.38916 12.0617 11.3309 9.92018C12.4964 9.07179 13.369 8.10082 13.7853 7.59782C14.0708 7.25256 14.0723 6.75083 13.7853 6.40377ZM7.00003 3.98334C8.66394 3.98334 10.0175 5.33688 10.0175 7.00079C10.0175 8.66471 8.66394 10.0183 7.00003 10.0183C5.33612 10.0183 3.98257 8.66471 3.98257 7.00079C3.98257 5.33688 5.33612 3.98334 7.00003 3.98334Z" fill="#1E1E1E"/>
</svg>