<svg xmlns="http://www.w3.org/2000/svg" width="14" height="14" viewBox="0 0 14 14" fill="none">
    <g clip-path="url(#clip0_0_5305)">
        <path d="M11.9478 2.05081C9.21358 -0.683398 4.78814 -0.683809 2.05355 2.05081C-0.145162 4.24949 -0.560642 7.51876 0.739241 10.1223L0.0185891 13.2922C-0.0750806 13.7043 0.29418 14.0737 0.706349 13.98L3.87626 13.2594C8.48529 15.5605 13.997 12.229 13.997 6.99796C13.997 5.12922 13.2693 3.37228 11.9478 2.05081ZM8.46011 8.74017H4.08174C3.76437 8.74017 3.50708 8.48288 3.50708 8.1655C3.50708 7.84813 3.76437 7.59084 4.08174 7.59084H8.46011C8.77749 7.59084 9.03477 7.84813 9.03477 8.1655C9.03477 8.48288 8.77749 8.74017 8.46011 8.74017ZM9.91959 6.40504H4.08174C3.76437 6.40504 3.50708 6.14776 3.50708 5.83038C3.50708 5.51301 3.76437 5.25572 4.08174 5.25572H9.91959C10.237 5.25572 10.4942 5.51301 10.4942 5.83038C10.4942 6.14776 10.2369 6.40504 9.91959 6.40504Z" fill="#1E1E1E"/>
    </g>
    <defs>
        <clipPath id="clip0_0_5305">
            <rect width="14" height="14" fill="white"/>
        </clipPath>
    </defs>
</svg>