<svg xmlns="http://www.w3.org/2000/svg" width="14" height="14" viewBox="0 0 14 14" fill="none">
    <path d="M13.7367 5.12313V7.59157C13.7367 7.84659 13.5346 8.04868 13.2796 8.04868H11.2731C10.4166 8.04868 9.72852 7.3606 9.72852 6.50411V6.21059C9.72852 5.3541 10.4166 4.66602 11.2731 4.66602H13.2796C13.5346 4.66602 13.7367 4.86811 13.7367 5.12313Z" fill="#1E1E1E"/>
    <path d="M5.39782 8.33738C5.39782 8.69249 4.91664 9.00381 4.19199 9.17511C3.79791 9.27182 3.33021 9.32764 2.8293 9.32764C2.33177 9.32764 1.86406 9.27182 1.46998 9.17511C0.744848 9.00381 0.263672 8.69249 0.263672 8.33738C0.263672 7.78932 1.41272 7.34375 2.8293 7.34375C4.24877 7.34423 5.39782 7.78932 5.39782 8.33738Z" fill="#1E1E1E"/>
    <path d="M4.35848 9.87822C3.89944 9.98985 3.3687 10.05 2.82882 10.05C2.29183 10.05 1.76205 9.98985 1.29772 9.87677C0.847339 9.77043 0.514365 9.62656 0.263672 9.46874V10.0163C0.263672 10.3714 0.74148 10.6799 1.46276 10.854C1.85685 10.9536 2.32792 11.0099 2.82882 11.0099C3.33309 11.0099 3.8008 10.9536 4.19825 10.854C4.92001 10.6799 5.39734 10.3714 5.39734 10.0163V9.46777C5.14617 9.62656 4.81127 9.77091 4.35848 9.87822Z" fill="#1E1E1E"/>
    <path d="M4.3681 11.5555C3.91147 11.6701 3.37688 11.7312 2.82882 11.7312C2.27884 11.7312 1.74569 11.6696 1.28617 11.5536C0.843489 11.4468 0.512921 11.3063 0.263672 11.1509V11.6946C0.263672 12.0497 0.74148 12.3581 1.46276 12.5352C1.85685 12.6319 2.32792 12.6877 2.82882 12.6877C3.33309 12.6877 3.8008 12.6315 4.19825 12.5352C4.92001 12.3577 5.39734 12.0492 5.39734 11.6946V11.1504C5.14713 11.3063 4.81464 11.4478 4.3681 11.5555Z" fill="#1E1E1E"/>
    <path d="M11.273 3.94453H13.1544V3.03992C13.1544 2.08719 12.3797 1.3125 11.4269 1.3125H2.98231C2.02958 1.3125 1.25488 2.08719 1.25488 3.03992V6.80464C1.74087 6.68291 2.28508 6.62276 2.82881 6.62276C4.3859 6.62276 5.96752 7.09383 6.11957 8.15819V9.85193V10.0165V11.4076H11.4269C12.3797 11.4076 13.1544 10.6329 13.1544 9.68015V8.77073H11.273C10.0234 8.77073 9.00663 7.754 9.00663 6.50439V6.21087C9.00663 4.96174 10.0234 3.94453 11.273 3.94453ZM6.083 3.99939H3.60158C3.36243 3.99939 3.16852 3.80547 3.16852 3.56633C3.16852 3.32718 3.36243 3.13327 3.60158 3.13327H6.08252C6.32167 3.13327 6.51558 3.32718 6.51558 3.56633C6.51558 3.80547 6.32215 3.99939 6.083 3.99939Z" fill="#1E1E1E"/>
</svg>