<svg xmlns="http://www.w3.org/2000/svg" width="34" height="34" viewBox="0 0 34 34" fill="none">
    <path d="M24.9369 12.2931H25.5C26.6272 12.2931 27.7082 12.7409 28.5052 13.5379C29.3022 14.335 29.75 15.416 29.75 16.5431V28.6875C29.75 29.8147 29.3022 30.8957 28.5052 31.6927C27.7082 32.4897 26.6272 32.9375 25.5 32.9375H8.5C7.37283 32.9375 6.29183 32.4897 5.4948 31.6927C4.69777 30.8957 4.25 29.8147 4.25 28.6875V16.5431C4.25 15.416 4.69777 14.335 5.4948 13.5379C6.29183 12.7409 7.37283 12.2931 8.5 12.2931H9.06312V8.99938C9.06312 6.89439 9.89933 4.87561 11.3878 3.38716C12.8762 1.8987 14.895 1.0625 17 1.0625C19.105 1.0625 21.1238 1.8987 22.6122 3.38716C24.1007 4.87561 24.9369 6.89439 24.9369 8.99938V12.2931Z" stroke="#B3B4C9"/>
    <path d="M17 19.0464C16.5878 19.0465 16.185 19.1697 15.8432 19.4002C15.5015 19.6307 15.2363 19.958 15.0818 20.3401C14.9272 20.7223 14.8903 21.1419 14.9757 21.5452C15.0612 21.9484 15.2651 22.317 15.5614 22.6036V25.1228C15.5614 25.4046 15.6733 25.6749 15.8726 25.8741C16.0718 26.0734 16.3421 26.1853 16.6239 26.1853H17.3761C17.6579 26.1853 17.9282 26.0734 18.1274 25.8741C18.3267 25.6749 18.4386 25.4046 18.4386 25.1228V22.6036C18.7349 22.317 18.9388 21.9484 19.0243 21.5452C19.1097 21.1419 19.0728 20.7223 18.9182 20.3401C18.7637 19.958 18.4985 19.6307 18.1568 19.4002C17.815 19.1697 17.4122 19.0465 17 19.0464Z" stroke="#B3B4C9"/>
</svg>