<svg class="stroke2" width="32" height="32" viewBox="0 0 32 32" fill="none" xmlns="http://www.w3.org/2000/svg">
    <path d="M21.4839 19.4971C20.8192 19.2064 18.9781 18.712 18.7568 17.875C18.4096 16.551 19.7285 15.5426 20.3153 14.5001C20.9328 13.4012 21.4482 11.9141 21.5485 10.671C21.9099 6.20955 19.1743 3.59903 15.252 4.05089C12.4008 4.37899 10.6977 6.50467 10.5135 9.24235C10.3265 12.0321 11.3614 14.0921 12.4606 15.6031C12.9417 16.2637 13.4466 16.6887 13.3698 17.485C13.2794 18.4268 12.2726 18.6889 11.5525 18.9779C10.6988 19.3213 9.78009 19.8415 9.34591 20.0819C7.93627 20.8605 6.39743 21.789 5.91735 23.0334C8.14367 26.2141 11.8313 28.3 15.9997 28.3C20.1817 28.3 23.8809 26.2009 26.1038 23.0022C25.4374 21.3022 23.1377 20.2237 21.4839 19.4971Z" stroke="#B3B4C9"/>
    <path d="M15.9997 0.700195C7.56363 0.700195 0.699707 7.56378 0.699707 16.0002C0.699707 24.4366 7.56363 31.3002 15.9997 31.3002C24.4365 31.3002 31.2997 24.4363 31.2997 16.0002C31.2997 7.56378 24.4365 0.700195 15.9997 0.700195Z" stroke="#B3B4C9"/>
</svg>