<svg xmlns="http://www.w3.org/2000/svg" width="134" height="51" viewBox="0 0 134 51" fill="none">
    <path d="M37.89 30.9577C37.89 31.3977 37.8121 31.8699 37.6562 32.3741C37.5096 32.8784 37.262 33.3459 36.9136 33.7768C36.5744 34.2077 36.1298 34.5698 35.5797 34.8632C35.0296 35.1474 34.3558 35.2895 33.5582 35.2895H19.9851C19.7284 35.2895 19.49 35.2437 19.27 35.152C19.05 35.0603 18.8574 34.9366 18.6924 34.7807C18.5366 34.6157 18.4128 34.4232 18.3211 34.2031C18.2294 33.9831 18.1836 33.7447 18.1836 33.488V17.3708C18.1836 17.1233 18.2294 16.8895 18.3211 16.6695C18.4128 16.4495 18.5366 16.2569 18.6924 16.0919C18.8574 15.9269 19.05 15.7985 19.27 15.7069C19.49 15.6152 19.7284 15.5693 19.9851 15.5693H31.9492C32.3893 15.5693 32.8614 15.6473 33.3657 15.8031C33.8699 15.959 34.3375 16.2111 34.7684 16.5595C35.2084 16.8987 35.5705 17.3433 35.8547 17.8934C36.1481 18.4435 36.2948 19.1173 36.2948 19.9149V20.5888C36.2948 21.2214 36.1894 21.9044 35.9785 22.6378C35.7677 23.3621 35.4284 24.0497 34.9609 24.7006C35.3643 24.9481 35.7402 25.2461 36.0885 25.5944C36.4461 25.9428 36.7578 26.3462 37.0237 26.8046C37.2895 27.263 37.5004 27.781 37.6562 28.3586C37.8121 28.9362 37.89 29.5733 37.89 30.2701V30.9577ZM34.3145 30.2701C34.3145 29.8025 34.2412 29.3854 34.0945 29.0187C33.9478 28.6428 33.7415 28.3219 33.4757 28.056C33.2098 27.7902 32.8889 27.5885 32.513 27.451C32.1372 27.3043 31.7154 27.2309 31.2479 27.2309H23.1893V23.6279H29.6389C30.1065 23.6279 30.5282 23.5592 30.9041 23.4217C31.28 23.275 31.6008 23.0687 31.8667 22.8028C32.1326 22.537 32.3343 22.2207 32.4718 21.8539C32.6185 21.4781 32.6918 21.0563 32.6918 20.5888V19.9149C32.6918 19.4015 32.4443 19.1448 31.9492 19.1448H21.7591V31.714H33.5582C33.6224 31.714 33.7003 31.7094 33.792 31.7003C33.8836 31.6911 33.9662 31.6636 34.0395 31.6178C34.1128 31.5719 34.177 31.494 34.232 31.384C34.287 31.274 34.3145 31.1227 34.3145 30.9302V30.2701Z" fill="#191B2A"/>
    <path d="M60.3606 35.2895H56.7851V30.4489H44.2159V35.2895H40.6404V25.4294C40.6404 23.9901 40.8879 22.6653 41.383 21.4551C41.8781 20.245 42.5657 19.2044 43.4458 18.3335C44.3259 17.4625 45.3665 16.7841 46.5675 16.2982C47.7685 15.8123 49.0795 15.5693 50.5005 15.5693H58.5591C58.8066 15.5693 59.0404 15.6152 59.2604 15.7069C59.4805 15.7985 59.673 15.9269 59.838 16.0919C60.003 16.2569 60.1314 16.4495 60.2231 16.6695C60.3147 16.8895 60.3606 17.1233 60.3606 17.3708V35.2895ZM44.2159 26.8734H56.7851V19.1448H50.5005C50.3905 19.1448 50.1567 19.1632 49.7991 19.1998C49.4508 19.2273 49.0428 19.3053 48.5752 19.4336C48.1168 19.562 47.6309 19.7591 47.1175 20.0249C46.6041 20.2908 46.132 20.6575 45.7011 21.1251C45.2702 21.5927 44.9126 22.1794 44.6284 22.8853C44.3534 23.5821 44.2159 24.4301 44.2159 25.4294V26.8734Z" fill="#191B2A"/>
    <rect x="1.5" y="1.5" width="130.029" height="47.681" rx="23.8405" stroke="#191B2A" stroke-width="3"/>
    <rect x="66.5479" y="6.56152" width="60.1879" height="37.6258" rx="18.8129" fill="#191B2A"/>
    <path d="M95.0721 16.642C95.2096 16.9629 95.2509 17.3021 95.1959 17.6596C95.1409 18.008 94.9942 18.306 94.7558 18.5535L82.9567 31.714H95.0446V35.2895H78.9274C78.5791 35.2895 78.2536 35.1933 77.951 35.0007C77.6577 34.799 77.4376 34.5378 77.291 34.2169C77.1351 33.896 77.0847 33.5614 77.1397 33.213C77.2039 32.8646 77.3506 32.5621 77.5797 32.3054L89.4064 19.1448H77.291V15.5693H93.4357C93.784 15.5693 94.1049 15.6702 94.3983 15.8719C94.7008 16.0644 94.9254 16.3211 95.0721 16.642Z" fill="#FFC700"/>
    <path d="M117.653 35.2895H114.077V30.4489H101.508V35.2895H97.9325V25.4294C97.9325 23.9901 98.18 22.6653 98.6751 21.4551C99.1702 20.245 99.8578 19.2044 100.738 18.3335C101.618 17.4625 102.659 16.7841 103.86 16.2982C105.061 15.8123 106.372 15.5693 107.793 15.5693H115.851C116.099 15.5693 116.333 15.6152 116.553 15.7069C116.773 15.7985 116.965 15.9269 117.13 16.0919C117.295 16.2569 117.424 16.4495 117.515 16.6695C117.607 16.8895 117.653 17.1233 117.653 17.3708V35.2895ZM101.508 26.8734H114.077V19.1448H107.793C107.683 19.1448 107.449 19.1632 107.091 19.1998C106.743 19.2273 106.335 19.3053 105.867 19.4336C105.409 19.562 104.923 19.7591 104.41 20.0249C103.896 20.2908 103.424 20.6575 102.993 21.1251C102.562 21.5927 102.205 22.1794 101.921 22.8853C101.646 23.5821 101.508 24.4301 101.508 25.4294V26.8734Z" fill="#FFC700"/>
</svg>