<svg data-v-e170d8af="" viewBox="0 0 16 24" fill="none" xmlns="http://www.w3.org/2000/svg"><path data-v-e170d8af="" d="M8 1.5H4.5C2.567 1.5 1 3.067 1 5C1 6.933 2.567 8.5 4.5 8.5M8 1.5V8.5M8 1.5H11.5C13.433 1.5 15 3.067 15 5C15 6.933 13.433 8.5 11.5 8.5M8 8.5H4.5M8 8.5V15.5M8 8.5H11.5M4.5 8.5C2.567 8.5 1 10.067 1 12C1 13.933 2.567 15.5 4.5 15.5M8 15.5H4.5M8 15.5V19C8 20.933 6.433 22.5 4.5 22.5C2.567 22.5 1 20.933 1 19C1 17.067 2.567 15.5 4.5 15.5M11.5 8.5C13.433 8.5 15 10.067 15 12C15 13.933 13.433 15.5 11.5 15.5C9.567 15.5 8 13.933 8 12C8 10.067 9.567 8.5 11.5 8.5Z" stroke="black" stroke-width="2" stroke-linecap="round" stroke-linejoin="round"></path></svg>